<?xml version="1.0" encoding="UTF-8" standalone="no"?>
<!-- Created with Inkscape (http://www.inkscape.org/) -->

<svg
   xmlns:dc="http://purl.org/dc/elements/1.1/"
   xmlns:cc="http://creativecommons.org/ns#"
   xmlns:rdf="http://www.w3.org/1999/02/22-rdf-syntax-ns#"
   xmlns:svg="http://www.w3.org/2000/svg"
   xmlns="http://www.w3.org/2000/svg"
   xmlns:xlink="http://www.w3.org/1999/xlink"
   xmlns:sodipodi="http://sodipodi.sourceforge.net/DTD/sodipodi-0.dtd"
   xmlns:inkscape="http://www.inkscape.org/namespaces/inkscape"
   width="15"
   height="10"
   id="svg2"
   version="1.1"
   inkscape:version="0.48.5 r10040"
   sodipodi:docname="button-pressed.svg">
  <defs
     id="defs4">
    <linearGradient
       id="linearGradient3761">
      <stop
         style="stop-color:#787878;stop-opacity:0.58823532;"
         offset="0"
         id="stop3763" />
      <stop
         style="stop-color:#000000;stop-opacity:0;"
         offset="1"
         id="stop3765" />
    </linearGradient>
    <radialGradient
       inkscape:collect="always"
       xlink:href="#linearGradient3761"
       id="radialGradient3771"
       gradientUnits="userSpaceOnUse"
       gradientTransform="matrix(0.60291662,-0.63555279,0.73595623,0.69816422,-4.6918189,8.0214032)"
       cx="12.196308"
       cy="3.283603"
       fx="12.196308"
       fy="3.283603"
       r="7.5" />
  </defs>
  <sodipodi:namedview
     id="base"
     pagecolor="#ffffff"
     bordercolor="#666666"
     borderopacity="1.0"
     inkscape:pageopacity="0.0"
     inkscape:pageshadow="2"
     inkscape:zoom="64"
     inkscape:cx="9.6688452"
     inkscape:cy="5.8125"
     inkscape:document-units="px"
     inkscape:current-layer="layer1"
     showgrid="false"
     fit-margin-top="0"
     fit-margin-left="0"
     fit-margin-right="0"
     fit-margin-bottom="0"
     inkscape:window-width="1793"
     inkscape:window-height="1253"
     inkscape:window-x="559"
     inkscape:window-y="7"
     inkscape:window-maximized="0" />
  <metadata
     id="metadata7">
    <rdf:RDF>
      <cc:Work
         rdf:about="">
        <dc:format>image/svg+xml</dc:format>
        <dc:type
           rdf:resource="http://purl.org/dc/dcmitype/StillImage" />
        <dc:title></dc:title>
      </cc:Work>
    </rdf:RDF>
  </metadata>
  <g
     inkscape:label="Layer 1"
     inkscape:groupmode="layer"
     id="layer1"
     transform="translate(0,-5)">
    <rect
       style="fill:#f4f7fa;fill-rule:evenodd;stroke:#000000;stroke-width:0.1;stroke-linecap:butt;stroke-linejoin:miter;stroke-opacity:1;fill-opacity:1;stroke-miterlimit:4;stroke-dasharray:none"
       id="rect4099"
       width="15"
       height="10"
       x="0"
       y="0"
       rx="5"
       ry="5"
       transform="translate(0,5)" />
    <rect
       transform="translate(0,5)"
       ry="5"
       rx="5"
       y="0"
       x="0"
       height="10"
       width="15"
       id="rect3759"
       style="fill:url(#radialGradient3771);fill-rule:evenodd;stroke:none;stroke-width:0.10000000000000001;stroke-linecap:butt;stroke-linejoin:miter;stroke-opacity:1;fill-opacity:1;stroke-miterlimit:4;stroke-dasharray:none" />
    <g
       style="font-size:14px;font-style:normal;font-variant:normal;font-weight:normal;font-stretch:normal;line-height:125%;letter-spacing:0px;word-spacing:0px;fill:#000000;fill-opacity:1;stroke:none;font-family:American Typewriter;-inkscape-font-specification:American Typewriter"
       id="text3811">
      <path
         d="m 8.136125,11.77975 c -5.6e-6,-0.07466 0.00466,-0.139997 0.014,-0.196 -0.3546719,0.550669 -0.9006713,0.826002 -1.638,0.826 -0.4480035,2e-6 -0.8120031,-0.149331 -1.092,-0.448 -0.2706692,-0.307997 -0.4060024,-0.704663 -0.406,-1.19 -2.4e-6,-0.8493287 0.3079973,-1.5959946 0.924,-2.24 0.615996,-0.6533266 1.3299953,-0.979993 2.142,-0.98 0.186661,7e-6 0.3919941,0.028007 0.616,0.084 l 0.28,0.07 c 0.037327,0.018674 0.083994,0.028007 0.14,0.028 0.04666,6.9e-6 0.1259933,-0.023326 0.238,-0.07 0.1493264,-0.065326 0.2566596,-0.097993 0.322,-0.098 0.1399928,7e-6 0.2099927,0.060674 0.21,0.182 -7.3e-6,0.028007 -0.00934,0.07934 -0.028,0.154 l -0.07,0.266 -0.798,2.982 c -0.028006,0.112003 -0.042006,0.20067 -0.042,0.266 -6.4e-6,0.168003 0.08866,0.252003 0.266,0.252 0.3453264,3e-6 0.667326,-0.223997 0.966,-0.672 0.419992,-0.625329 0.629992,-1.3486617 0.63,-2.17 -8e-6,-0.7746601 -0.256675,-1.4186595 -0.77,-1.932 -0.504007,-0.5133251 -1.1433397,-0.7699915 -1.918,-0.77 -1.0920045,8.5e-6 -2.0440035,0.4386747 -2.856,1.316 -0.8026686,0.8680063 -1.2040015,1.8900053 -1.204,3.066 -1.5e-6,0.91467 0.2939982,1.680002 0.882,2.296 0.587997,0.606668 1.3253296,0.910001 2.212,0.91 0.5226616,10e-7 0.9519945,-0.06067 1.288,-0.182 0.3453271,-0.130665 0.77466,-0.382665 1.288,-0.756 0.1866593,-0.139998 0.340659,-0.209998 0.462,-0.21 0.177326,2e-6 0.265992,0.084 0.266,0.252 -8e-6,0.177335 -0.121341,0.359335 -0.364,0.546 -0.9240066,0.728001 -1.9413389,1.092 -3.052,1.092 -1.1293367,0 -2.0720024,-0.373333 -2.828,-1.12 -0.7466676,-0.755998 -1.1200005,-1.698664 -1.12,-2.828 -5e-7,-1.3626612 0.503999,-2.5479934 1.512,-3.556 1.0173303,-1.0173247 2.2166624,-1.5259908 3.598,-1.526 1.0453267,9.2e-6 1.894659,0.3080089 2.548,0.924 0.662658,0.6160076 0.993991,1.4186735 0.994,2.408 -9e-6,1.1106714 -0.406009,2.081337 -1.218,2.912 -0.494674,0.504002 -1.0126736,0.756002 -1.554,0.756 -0.2426728,2e-6 -0.4433393,-0.06066 -0.602,-0.182 -0.1586723,-0.121331 -0.2380056,-0.275331 -0.238,-0.462 m 0.294,-1.904 0.378,-1.4 c -0.2800059,-0.1399937 -0.5506723,-0.2099937 -0.812,-0.21 -0.5413382,6.3e-6 -1.0173377,0.2380061 -1.428,0.714 -0.4013369,0.4760051 -0.6020034,1.031338 -0.602,1.666 -3.4e-6,0.644003 0.2799963,0.966003 0.84,0.966 0.7746617,3e-6 1.3159945,-0.578663 1.624,-1.736"
         style=""
         id="path3816" />
    </g>
  </g>
</svg>
